<svg xmlns="http://www.w3.org/2000/svg" width="16" height="16" viewBox="0 0 16 16">
    <path d="M0 0h16v16H0z" fill="none" />
    <path fill="#0080ff" fill-rule="evenodd"
        d="M15.46 3.206s.14-.003.245.102l.01.01c.064.06.258.244.285 1.074c0 2.902-1.405 5.882-1.405 5.882a9 9 0 0 1-.359.713c-.458.802-.786 1.153-.786 1.153s-.318.379-.675.595c-.415.265-.72.263-.72.263L7.247 13c-.636-.079-1.29-.736-1.927-1.578c-.47-.677-.779-1.413-.779-1.413s-2.51.034-3.675-1.394C.235 7.895.103 7.067.06 6.769q0-.012-.004-.029c-.05-.324-.285-1.873.821-2.86c.517-.496 1.148-.638 1.37-.684c.371-.081.667-.06.903-.044l.09.006c.391.035 3.99.216 3.99.216s1.532.066 2.27.056c0 0 .003 1.853.003 2.78q.105.048.211.1l.212.1V3.427q.494-.005.996-.017h.011c1.545-.036 4.528-.204 4.528-.204ZM2.113 8.026s.28.26.94.477c.43.152 1.094.231 1.094.231S3.699 7.5 3.516 6.757c-.22-.886-.4-2.398-.4-2.398s-.438-.015-.789.079c-.766.19-.98.763-.98.763s-.384.688.036 1.813c.244.672.73 1.013.73 1.013Zm8.084 3.607c.344-.023.499-.392.499-.392s1.24-2.486 1.4-2.878a.7.7 0 0 0 .046-.438c-.07-.267-.39-.412-.39-.412l-1.926-.935l-.165.339l-.18.369a.46.46 0 0 1 .128.341s.433.186.743.387c0 0 .257.135.32.425c.075.273-.04.488-.066.539l-.002.003s-.216.51-.343.774l-.004.007q-.07.144-.139.28a.454.454 0 1 1-.32-.15s.41-.84.468-1.033c0 0 .096-.24.048-.38a.47.47 0 0 0-.19-.188a6 6 0 0 0-.678-.34s-.076.068-.18.09a.5.5 0 0 1-.158.014l-.611 1.25a.46.46 0 0 1 .046.587a.46.46 0 0 1-.578.138a.46.46 0 0 1-.232-.51a.46.46 0 0 1 .44-.35L8.8 7.886a.457.457 0 0 1 .361-.744l.185-.375l.167-.341l-.579-.281s-.251-.125-.458-.072a.6.6 0 0 0-.114.039c-.189.084-.31.33-.31.33L6.668 9.293s-.124.254-.068.46c.048.252.325.397.325.397l2.874 1.4l.135.054s.114.04.262.03Z"
        clip-rule="evenodd" />
</svg>