<svg xmlns="http://www.w3.org/2000/svg" width="24" height="24" viewBox="0 0 24 24">
    <path d="M0 0h24v24H0z" fill="none" />
    <path fill="#0080ff"
        d="M12.005.605h-.09l-.028.001h-.064l-.03.001l-.07.001l-.02.001l-.09.003h-.022l-.07.003l-.03.001l-.063.003L11.4.62l-.09.005l-.09.006h-.015l-.01.001l-.064.005l-.03.002l-.07.005l-.02.002l-.088.008l-.02.001l-.07.007l-.027.003l-.065.006l-.025.003l-.088.01l-.09.01l-.023.003l-.066.008l-.008.002l-.015.002h-.003l-.073.01l-.015.002l-.05.007l-.04.006l-.014.002l-.073.01l-.024.005l-.07.01l-.02.004l-.088.015l-.035.006l-.018.004l-.035.006l-.02.003l-.07.013l-.02.004l-.08.015h-.003l-.004.001l-.005.001l-.087.018l-.007.002H9.57l-.034.008l-.043.01l-.018.002L9.4.89l-.013.003l-.09.02l-.09.02l-.01.003l-.08.02l-.011.003l-.087.022l-.092.024l-.088.024l-.01.002l-.084.024h-.003l-.09.026l-.091.027H8.56l-.073.023l-.01.003l-.005.002h-.003l-.028.01l-.19.062l-.08.025l-.257.091l-.075.027a8 8 0 0 0-.305.12q-.03.01-.061.023l-.144.06a13 13 0 0 0-.53.24l-.07.034l-.08.04q-.256.128-.506.267q-.231.27-.45.548l-.06.08l-.036.043l.005-.003l-.11.146q-.117.154-.231.31q-.085.12-.167.243q-.123.175-.24.355l-.158.25c-.074.12-.15.24-.22.362q-.076.128-.148.258c-.07.126-.141.25-.21.38l-.132.26a16 16 0 0 0-.187.379q-.067.144-.132.29a16 16 0 0 0-.433 1.063l-.05.128l.009-.012q-.192.534-.348 1.084l-.107.049l-.015.006a5 5 0 0 0-.56.307l-.035.022a5 5 0 0 0-.493.37l-.045.038a5 5 0 0 0-.427.427l-.044.05a5 5 0 0 0-.366.488l-.025.04a5 5 0 0 0-.302.553l-.01.024a5 5 0 0 0-.227.606l-.003.013q-.091.311-.14.64v.01a4.7 4.7 0 0 0 0 1.318v.01q.049.328.14.64l.004.014q.092.312.226.605l.01.024q.134.288.303.554l.024.038q.168.259.368.49l.041.049q.2.226.426.426l.048.04q.232.2.49.367l.04.027q.267.17.557.304l.015.006q.295.135.61.228l.017.005q.311.09.637.138l.012.002a4.7 4.7 0 0 0 1.315 0l.012-.002q.327-.047.637-.138l.017-.005a5 5 0 0 0 .609-.227l.017-.008q.289-.134.555-.303l.042-.027q.256-.167.49-.366l.045-.04q.228-.2.429-.43l.039-.044q.2-.234.37-.493l.02-.035a5 5 0 0 0 .306-.557l.01-.021q.134-.295.227-.61l.002-.008q.091-.312.14-.64v-.02a4.7 4.7 0 0 0 .04-.881v-.002q-.001-.074-.01-.147l-.006-.085a4 4 0 0 0-.028-.222v-.005a4.6 4.6 0 0 0-.304-1.098v-.001q-.045-.105-.094-.21l-.002-.003l-.083-.165l-.02-.04l-.07-.123l-.05-.085l-.037-.06l-.087-.137l-.012-.016A4.7 4.7 0 0 0 7.14 8.635l-.053-.033l-.096-.055q-.053-.032-.11-.063l-.044-.022a4.6 4.6 0 0 0-1.368-.464a13.7 13.7 0 0 1 3.39-5.233a10.3 10.3 0 0 1 3.147-.493c5.7 0 10.329 4.629 10.33 10.329v.002c0 2.13-.647 4.11-1.753 5.756l-.013.018C18.5 21.46 14.682 23.57 9.503 23.02l.02.016c5.2 1.138 9.375-.545 11.882-3.46l-.018.026a11 11 0 0 0 .308-.372l.054-.071q.141-.183.275-.37l.1-.146a11 11 0 0 0 .506-.816l.076-.133q.26-.48.469-.981l.062-.158a11 11 0 0 0 .314-.901q.025-.08.047-.157a10 10 0 0 0 .136-.527l.003-.018q.057-.256.103-.516l.025-.16a11 11 0 0 0 .108-.95q.008-.09.012-.177q.014-.272.015-.545C24.001 5.982 18.626.605 12.005.605m.232 3.277c1.363 1.373 2.135 3.205 2.41 5.229c.104.765-.046 1.61-.77 2.13c-.058.333.115.696.267 1.055c.388.92.98 1.757 1.408 2.642c.384.798-.632 1.388-1.374 1.63a6 6 0 0 1-.275.084c.048.383.274.67.215 1.003a.98.98 0 0 1-.372.6s.28.878-.38 1.26c-.152.087-.33.104-.364.34c-.064.468-.134.926-.504 1.307q-.084.085-.177.159c4.326-.152 7.97-3.507 8.372-7.93c.435-4.794-3.104-9.04-7.9-9.476a9 9 0 0 0-.556-.034zm-1.973.17a8.7 8.7 0 0 0-2.003.672c.388.134.736.316.97.534c1.09 1.01 1.629 2.003 1.93 3.383c.267 1.218.395 1.809-.245 2.253c-.865.6.923 3.164 1.272 3.906c-.46.592-1.062.579-1.38.743c-.176.09-.103.426-.074.685c.028.254.26.413.133.61c-.114.175-.55.188-.737.31c.182.2.585.399.53.658c-.04.2-.492.166-.666.622c-.093.245-.045.698-.238.927c-.448.53-.917.62-1.85.517a16 16 0 0 1-.908-.127a8.6 8.6 0 0 0 2.263 1.137c.25.082.517.11.78.082c.492-.046.834-.226 1.166-.62c.22-.26.165-.776.27-1.054c.199-.52.713-.478.76-.706c.06-.296-.398-.523-.604-.75c.214-.138.707-.153.838-.353c.145-.223-.12-.404-.152-.693c-.032-.294-.115-.676.085-.78c.36-.186 1.045-.172 1.569-.844c-.397-.844-2.43-3.76-1.447-4.442c.728-.506.583-1.177.28-2.563c-.344-1.57-.957-2.698-2.195-3.847a2.2 2.2 0 0 0-.347-.26" />
</svg>