<svg xmlns="http://www.w3.org/2000/svg" width="24" height="24" viewBox="0 0 24 24">
    <path d="M0 0h24v24H0z" fill="none" />
    <path fill="#0080ff"
        d="M11.54.448c-.142.238-.333.524-.438.628c-.171.181-.18.172-.733-.371c-.667-.667-.772-.648-1.086.21c-.133.352-.295.6-.429.676c-.19.095-.285.066-.761-.276c-.8-.562-.943-.477-1.096.619c-.038.276-.114.476-.21.514c-.076.029-.4-.067-.704-.22c-.781-.37-.896-.285-.905.62c0 .371-.048.724-.095.771c-.067.067-.315.048-.781-.066c-.915-.22-.972-.162-.753.752c.114.467.133.715.067.781c-.048.048-.4.095-.772.095c-.914.01-.99.124-.61.905c.372.781.277 1.01-.447 1.105c-1.067.153-1.133.286-.543 1.076c.476.63.448.724-.343 1.01c-.847.324-.867.429-.2 1.095c.543.553.553.562.372.734c-.105.105-.39.295-.629.438c-.59.343-.59.571 0 .914c.238.143.524.334.629.438c.18.172.171.181-.372.734c-.667.667-.647.771.21 1.086c.352.133.6.295.676.428c.095.19.067.286-.276.762c-.562.8-.476.943.619 1.096c.276.038.476.114.514.21c.029.075-.066.4-.219.704c-.371.781-.286.895.62.905c.37 0 .723.048.77.095c.067.067.048.314-.066.781c-.219.915-.162.972.753.753c.466-.115.714-.134.78-.067c.048.048.096.4.096.771c.01.915.124.991.905.61c.78-.371 1.01-.276 1.105.448c.152 1.067.285 1.133 1.076.543c.629-.477.724-.448 1.01.343c.323.847.419.866 1.105.19c.666-.648.609-.657 1.161.276c.343.581.572.581.915 0c.552-.933.495-.924 1.162-.276c.686.676.78.657 1.095-.2c.133-.352.295-.6.429-.676c.19-.096.286-.067.762.276c.8.562.943.476 1.095-.619c.038-.276.114-.476.21-.514c.076-.029.4.066.705.219c.78.371.895.285.905-.62c0-.37.047-.723.095-.771c.066-.067.314-.048.78.067c.915.219.972.162.753-.753c-.114-.467-.133-.714-.067-.78c.048-.048.4-.096.772-.096c.914-.01.99-.124.61-.905c-.372-.78-.277-1.01.447-1.105c1.067-.152 1.134-.286.543-1.076c-.476-.629-.448-.724.343-1.01c.848-.324.867-.419.19-1.105c-.647-.666-.657-.61.277-1.162c.295-.18.438-.324.438-.457s-.143-.276-.438-.457c-.934-.552-.924-.495-.276-1.162c.676-.686.657-.781-.2-1.095c-.353-.134-.6-.296-.677-.429c-.095-.19-.067-.286.276-.762c.562-.8.477-.943-.619-1.095c-.276-.038-.476-.115-.514-.21c-.029-.076.067-.4.219-.705c.372-.78.286-.895-.619-.905c-.371 0-.724-.047-.772-.095c-.066-.066-.047-.314.067-.78c.22-.915.162-.972-.752-.753c-.467.114-.715.133-.781.066c-.048-.047-.096-.4-.096-.771c-.01-.915-.123-.99-.905-.61c-.78.372-1.01.277-1.104-.447c-.153-1.067-.286-1.134-1.077-.543c-.628.476-.724.447-1.01-.343c-.323-.848-.428-.867-1.095-.2c-.552.543-.562.552-.733.371c-.105-.105-.295-.39-.438-.628C12.274.143 12.13 0 11.998 0c-.134 0-.276.143-.457.448m.934 1.933c.105.105.19.315.19.476a.76.76 0 0 1-.19.477c-.41.41-1.143.104-1.143-.477c0-.362.305-.666.667-.666a.76.76 0 0 1 .476.19m-1.467 1.62c.924.895 1.057.895 1.981 0l.686-.667l.667.19c.762.21 1.943.715 1.943.838c0 .038-.895 2.63-1.99 5.744c-1.096 3.114-2.049 5.838-2.106 6.058c-.067.228-.152.41-.19.41s-.115-.163-.162-.353c-.057-.2-1-2.943-2.105-6.106a604 604 0 0 1-2.02-5.79c0-.115 2.115-.934 2.563-.982c.028-.01.352.286.733.657m-3.343 9.6c1.352 3.791 2.429 6.906 2.4 6.934c-.067.077-1.076-.219-1.505-.447c-.343-.172-.352-.19-.476-1c-.076-.524-.19-.905-.305-1.058c-.19-.238-.219-.238-.867-.171c-1.428.162-1.371.18-1.933-.572c-.61-.81-1.181-1.943-1.457-2.905c-.162-.533-.22-1.066-.257-2.095l-.048-1.381l.857-.457c1.153-.6 1.181-.705.59-1.877c-.428-.847-.428-.8.125-1.6c.152-.229.314-.38.352-.333c.038.038 1.171 3.171 2.524 6.962m11.82-6.21l.238.4l-.39.772c-.59 1.18-.562 1.286.58 1.886l.848.447v1.077c0 1.247-.171 2.219-.58 3.257c-.315.79-.944 1.838-1.449 2.429l-.323.38l-.753-.113a9 9 0 0 0-1.01-.115c-.4 0-.6.353-.733 1.286l-.124.829l-.504.219c-.581.257-1.286.467-1.353.39c-.038-.038 4.01-11.524 4.848-13.772l.095-.238l.191.238c.105.123.295.41.419.628M3.76 8.715c.447.438.18 1.095-.448 1.095c-.4 0-.648-.238-.648-.628c0-.629.658-.915 1.096-.467m17.22-.133c.277.152.353.266.353.6c0 .38-.248.628-.638.628c-.638 0-.915-.647-.458-1.095c.258-.267.43-.295.743-.133M7.236 19.154c.343.82-.829 1.324-1.21.515c-.142-.296-.142-.343.01-.572c.324-.495.99-.467 1.2.057m10.563-.257c.238.19.305.524.153.82c-.391.761-1.524.218-1.191-.563c.171-.428.667-.552 1.038-.257" />
</svg>